<?xml version="1.0" encoding="UTF-8" standalone="no"?>
<svg
   xmlns:dc="http://purl.org/dc/elements/1.1/"
   xmlns:cc="http://creativecommons.org/ns#"
   xmlns:rdf="http://www.w3.org/1999/02/22-rdf-syntax-ns#"
   xmlns:svg="http://www.w3.org/2000/svg"
   xmlns="http://www.w3.org/2000/svg"
   xmlns:sodipodi="http://sodipodi.sourceforge.net/DTD/sodipodi-0.dtd"
   xmlns:inkscape="http://www.inkscape.org/namespaces/inkscape"
   viewBox="0 0 448 512"
   version="1.1"
   id="svg4"
   sodipodi:docname="whatsapp.svg"
   inkscape:version="0.92.4 (5da689c313, 2019-01-14)">
  <metadata
     id="metadata10">
    <rdf:RDF>
      <cc:Work
         rdf:about="">
        <dc:format>image/svg+xml</dc:format>
        <dc:type
           rdf:resource="http://purl.org/dc/dcmitype/StillImage" />
      </cc:Work>
    </rdf:RDF>
  </metadata>
  <defs
     id="defs8" />
  <sodipodi:namedview
     pagecolor="#ffffff"
     bordercolor="#666666"
     borderopacity="1"
     objecttolerance="10"
     gridtolerance="10"
     guidetolerance="10"
     inkscape:pageopacity="0"
     inkscape:pageshadow="2"
     inkscape:window-width="1366"
     inkscape:window-height="706"
     id="namedview6"
     showgrid="false"
     inkscape:zoom="0.4609375"
     inkscape:cx="348.74576"
     inkscape:cy="256"
     inkscape:window-x="-8"
     inkscape:window-y="-8"
     inkscape:window-maximized="1"
     inkscape:current-layer="layer1" />
  <path
     d="M 383.06949,97.100005 C 341.16949,55.1 285.36949,32 226.06949,32 103.66949,32 4.0694919,131.6 4.0694919,254 c 0,39.1 10.1999991,77.3 29.5999991,111 L 2.1694919,480 119.86949,449.1 c 32.4,17.7 68.9,27 106.1,27 h 0.1 c 122.3,0 224.1,-99.6 224.1,-222 0,-59.3 -25.2,-115 -67.1,-156.999995 z m -157,341.599995 c -33.2,0 -65.7,-8.9 -94,-25.7 l -6.7,-4 -69.799999,18.3 18.6,-68.1 -4.4,-7 c -18.5,-29.4 -28.2,-63.3 -28.2,-98.2 0,-101.7 82.799999,-184.5 184.599999,-184.5 49.3,0 95.6,19.200005 130.4,54.1 34.8,34.9 56.2,81.2 56.1,130.5 0,101.8 -84.9,184.6 -186.6,184.6 z m 101.2,-138.2 c -5.5,-2.8 -32.8,-16.2 -37.9,-18 -5.1,-1.9 -8.8,-2.8 -12.5,2.8 -3.7,5.6 -14.3,18 -17.6,21.8 -3.2,3.7 -6.5,4.2 -12,1.4 -32.6,-16.3 -54,-29.1 -75.5,-66 -5.7,-9.8 5.7,-9.1 16.3,-30.3 1.8,-3.7 0.9,-6.9 -0.5,-9.7 -1.4,-2.8 -12.5,-30.1 -17.1,-41.2 -4.5,-10.8 -9.1,-9.3 -12.5,-9.5 -3.2,-0.2 -6.9,-0.2 -10.6,-0.2 -3.7,0 -9.7,1.4 -14.8,6.9 -5.1,5.6 -19.4,19 -19.4,46.3 0,27.3 19.9,53.7 22.6,57.4 2.8,3.7 39.1,59.7 94.8,83.8 35.2,15.2 49,16.5 66.6,13.9 10.7,-1.6 32.8,-13.4 37.4,-26.4 4.6,-13 4.6,-24.1 3.2,-26.4 -1.3,-2.5 -5,-3.9 -10.5,-6.6 z"
     id="path2"
     inkscape:connector-curvature="0" />
  <g
     inkscape:groupmode="layer"
     id="layer1"
     inkscape:label="maraña_1"
     style="display:inline">
    <ellipse
       style="opacity:1;fill:#ffffff;fill-opacity:1;stroke:none;stroke-width:0.69098693;stroke-miterlimit:4;stroke-dasharray:none;stroke-dashoffset:0;stroke-opacity:1;paint-order:fill markers stroke"
       id="path4525"
       cx="232.13564"
       cy="254.91527"
       rx="160.54237"
       ry="142.1017" />
    <text
       xml:space="preserve"
       style="font-style:normal;font-variant:normal;font-weight:bold;font-stretch:normal;font-size:192px;line-height:1.25;font-family:sans-serif;-inkscape-font-specification:'sans-serif, Bold';font-variant-ligatures:normal;font-variant-caps:normal;font-variant-numeric:normal;font-feature-settings:normal;text-align:start;letter-spacing:0px;word-spacing:0px;writing-mode:lr-tb;text-anchor:start;fill:#000000;fill-opacity:1;stroke:none"
       x="121.4915"
       y="277.69492"
       id="text4543"><tspan
         sodipodi:role="line"
         id="tspan4541"
         x="121.4915"
         y="277.69492"
         style="font-style:normal;font-variant:normal;font-weight:bold;font-stretch:normal;font-size:192px;font-family:sans-serif;-inkscape-font-specification:'sans-serif, Bold';font-variant-ligatures:normal;font-variant-caps:normal;font-variant-numeric:normal;font-feature-settings:normal;text-align:start;writing-mode:lr-tb;text-anchor:start">...</tspan></text>
  </g>
</svg>
